<svg xmlns="http://www.w3.org/2000/svg" viewBox="0 0 512 512">
  <defs>
    <radialGradient id="bg" cx="50%" cy="30%" r="90%">
      <stop offset="0%" stop-color="#2a2440"/>
      <stop offset="70%" stop-color="#15131F"/>
    </radialGradient>
    <linearGradient id="gold" x1="0" y1="0" x2="0" y2="1">
      <stop offset="0%" stop-color="#f8d488"/>
      <stop offset="55%" stop-color="#f2b441"/>
      <stop offset="100%" stop-color="#c98a1e"/>
    </linearGradient>
    <linearGradient id="flame" x1="0" y1="1" x2="0" y2="0">
      <stop offset="0%" stop-color="#f2b441"/>
      <stop offset="60%" stop-color="#ffd98a"/>
      <stop offset="100%" stop-color="#fff3d6"/>
    </linearGradient>
  </defs>
  <rect width="512" height="512" rx="110" fill="url(#bg)"/>
  <circle cx="256" cy="250" r="170" fill="none" stroke="#3d3654" stroke-width="6"/>
  <circle cx="256" cy="250" r="150" fill="none" stroke="#564c78" stroke-width="2" opacity=".7"/>
  <!-- llama -->
  <path d="M256 96c26 38 56 60 56 102 0 34-25 58-56 58s-56-24-56-58c0-42 30-64 56-102z" fill="url(#flame)" opacity=".95"/>
  <path d="M256 142c14 22 30 34 30 56 0 19-13 32-30 32s-30-13-30-32c0-22 16-34 30-56z" fill="#f2b441"/>
  <!-- yunque -->
  <path d="M136 286h240v30c0 8-6 14-14 14h-66l22 52c3 8-3 16-11 16H205c-8 0-14-8-11-16l22-52h-66c-8 0-14-6-14-14z" fill="url(#gold)"/>
  <rect x="206" y="398" width="100" height="22" rx="8" fill="url(#gold)"/>
  <!-- tilde de la eñe como guiño -->
  <path d="M196 252q30 -22 60 0t60 0" fill="none" stroke="#3dd6c3" stroke-width="14" stroke-linecap="round"/>
</svg>
